# xmcd
#
# Track frame offsets: 
#        150
#        3996
#        18027
#        31948
#        43833
#        55605
#        70746
#        85002
#        86091
#        104314
#        117483
#        131894
#        135221
#        148875
#
# Disc length: 2376 seconds
#
# Revision: 0
# Processed by: cddbd v1.5.2PL0 Copyright (c) Steve Scherf et al.
# Submitted via: ExactAudioCopy v1.0b3
#
DISCID=b309460e
DTITLE=Sagpa ni Mama - I Don't Care Attitude
DYEAR=2010
DGENRE=Grunge
TTITLE0=Radio News
TTITLE1=Attitude
TTITLE2=Skeleton Tree
TTITLE3=1 To 8
TTITLE4=Clown
TTITLE5=Pekeng Mukha
TTITLE6=Awake
TTITLE7=Jamming in The C.R.
TTITLE8=Dog's Life
TTITLE9=Spank Mama
TTITLE10=Smoke is My Idea
TTITLE11=Natok-an Og Plema
TTITLE12=Batal
TTITLE13=[Untitled]
EXTD=
EXTT0=
EXTT1=
EXTT2=
EXTT3=
EXTT4=
EXTT5=
EXTT6=
EXTT7=
EXTT8=
EXTT9=
EXTT10=
EXTT11=
EXTT12=
EXTT13=
PLAYORDER=
